<mxfile host="app.diagrams.net" modified="2023-12-21T11:56:38.170Z" agent="Mozilla/5.0 (Macintosh; Intel Mac OS X 10_15_7) AppleWebKit/605.1.15 (KHTML, like Gecko) Version/17.0 Safari/605.1.15" version="22.1.11" etag="L1bJ_YEfP-P_8VljXNf6" type="github">
  <diagram name="페이지-1" id="m0teKe3bG4BeFNugPWSQ">
    <mxGraphModel>
      <root>
        <mxCell id="0" />
        <mxCell id="1" parent="0" />
      </root>
    </mxGraphModel>
  </diagram>
</mxfile>
